<?xml version="1.0" encoding="UTF-8"?>
<svg width="300" height="300" version="1.1" viewBox="0 0 1087.4 922.52" xmlns="http://www.w3.org/2000/svg">
 <defs>
  <clipPath id="d">
   <path d="M 0,841.89 H 1190.55 V 0 H 0 Z"/>
  </clipPath>
  <clipPath id="c">
   <path d="m613.99 554.85h149.98v-149.98h-149.98z"/>
  </clipPath>
 </defs>
 <g transform="matrix(1.3333 0 0 -1.3333 0 1122.5) translate(-3175 -1998) scale(5.2)">
  <g clip-path="url(#d)">
   <g clip-path="url(#c)" opacity=".7">
    <g transform="translate(763.98 427.66)">
     <path d="m0 0c0-12.587-10.206-22.791-22.792-22.791h-104.4c-12.586 0-22.791 10.204-22.791 22.791v104.4c0 12.587 10.205 22.791 22.791 22.791h104.4c12.586 0 22.792-10.204 22.792-22.791z" fill="#60caef"/>
    </g>
   </g>
   <g transform="translate(742.57 507.31)">
    <path d="m0 0c-3.523-1.563-7.312-2.62-11.285-3.094 4.056 2.432 7.176 6.281 8.64 10.87-3.792-2.252-7.996-3.888-12.474-4.77-3.587 3.821-8.695 6.206-14.345 6.206-10.852 0-19.65-8.799-19.65-19.649 0-1.542 0.173-3.039 0.508-4.476-16.332 0.816-30.807 8.639-40.5 20.531-1.688-2.906-2.658-6.28-2.658-9.881 0-6.815 3.468-12.834 8.737-16.353-3.218 0.097-6.248 0.988-8.898 2.459v-0.248c0-9.52 6.774-17.463 15.76-19.268-1.648-0.447-3.389-0.693-5.176-0.693-1.264 0-2.499 0.127-3.699 0.357 2.501-7.806 9.756-13.486 18.353-13.648-6.72-5.268-15.19-8.412-24.402-8.412-1.584 0-3.146 0.095-4.683 0.275 8.693-5.568 19.022-8.824 30.124-8.824 36.139 0 55.901 29.935 55.901 55.904 0 0.849-0.021 1.696-0.053 2.545 3.832 2.767 7.159 6.227 9.8 10.169" fill="#ffeed7"/>
   </g>
  </g>
 </g>
</svg>
